<?xml version="1.0" encoding="UTF-8" standalone="yes"?>
<svg version="1.2" baseProfile="tiny-ps" viewBox="0 0 300 300" xmlns="http://www.w3.org/2000/svg">
  <title>bimi-svg-tiny-12-ps</title>
  <g>
    <g fill="#fba51a" transform="matrix(.1 0 0 -.1 0 300)">
      <path d="M1205 2861c-329-59-590-192-816-416-231-229-361-510-385-831l-7-90 12-104c16-137 50-264 100-379l41-93 67-102 67-101 86-89c232-241 534-392 881-441l110-15h224l105 15c626 89 1115 529 1226 1103l17 87v280l-22 105-22 105-40 102-40 101-48 81c-67 110-134 192-244 297l-93 89-84 56c-116 78-231 133-370 180l-116 39-118 20-118 20-156-1-157-1-100-17zm478-259 17-18-7-215-6-214 112-18c143-23 253-57 365-115l88-45 67-66 66-66 32-61 32-61 16-64 15-64v-130l-15-64-16-64-32-61-32-61-55-55c-69-69-153-125-250-167-79-34-238-77-327-88-29-4-56-11-59-16-3-6-3-38 1-71l7-61 23-22 22-23 104-7 104-7 18-16 17-15v-75l-16-13-16-13h-490l-490-1-14 20c-18 25-18 65 1 91l14 21 102 8 102 7 23 11 24 10 10 36c5 20 10 57 10 82v47l-57 7c-279 34-534 169-645 339l-38 60-20 64-20 64v184l15 59c9 32 28 81 43 109l27 51 70 71 70 71 65 35c105 58 326 127 408 128h22v-167l-42-13c-24-7-63-23-88-35l-46-23-41-44-40-45-22-58-22-59-6-115-6-116 12-74c15-92 38-146 86-200l37-41 62-29 61-29 80-19 80-18h370l75 18c96 23 153 49 206 92l43 36 31 63 31 63 9 64c19 132 6 304-29 384-10 23-36 61-57 85l-38 42-47 23c-54 28-184 66-193 57-3-3-6-196-6-428v-424l-27-7c-37-10-328-10-375 0l-38 8 1 553v554l-15 35-14 36-39 10c-21 5-73 13-116 16l-77 7-20 26-20 25v21c0 12 7 31 15 43l14 21 83 12c136 19 357 68 453 100 50 16 104 29 121 30h31l16-18zm639-2334 5-13 26-3 27-3V90h30v159l27 3 26 3 5 13 4 12h-154l4-12zm170-80 3-91 12-4 12-4 3 68 3 68 30-57c16-32 33-58 37-58 5 0 21 25 36 56l27 56 5-63 5-62 13-5 12-4v192h-40l-28-62-29-63-31 63-32 62h-41l3-92z"/>
    </g>
  </g>
</svg>